<svg xmlns="http://www.w3.org/2000/svg" viewBox="0 0 800 150" width="100%">
  <defs>
    <linearGradient id="dark-bg" x1="0%" y1="0%" x2="100%" y2="100%">
      <stop offset="0%">
        <animate attributeName="stop-color" values="#052538;#0a4a61;#11708f;#052538" dur="10s" repeatCount="indefinite" />
      </stop>
      <stop offset="100%">
        <animate attributeName="stop-color" values="#11708f;#052538;#0a4a61;#11708f" dur="10s" repeatCount="indefinite" />
      </stop>
    </linearGradient>

    <filter id="neon-glow" x="-20%" y="-20%" width="140%" height="140%">
      <feDropShadow dx="0" dy="0" stdDeviation="4" flood-color="#00ffff" flood-opacity="0.8"/>
    </filter>
    
    <filter id="light-shadow" x="-20%" y="-20%" width="140%" height="140%">
      <feDropShadow dx="1.5" dy="2.5" stdDeviation="2" flood-color="#000000" flood-opacity="0.6"/>
    </filter>

    <g id="html"><polygon points="-12,-15 12,-15 10,10 0,15 -10,10" fill="#E34F26"/><polygon points="0,-12 10,-12 8,8 0,12" fill="#F06529"/><text y="3" font-family="Arial" font-weight="bold" font-size="10" fill="#fff" text-anchor="middle">5</text></g>
    <g id="css"><polygon points="-12,-15 12,-15 10,10 0,15 -10,10" fill="#1572B6"/><polygon points="0,-12 10,-12 8,8 0,12" fill="#33A9DC"/><text y="3" font-family="Arial" font-weight="bold" font-size="10" fill="#fff" text-anchor="middle">3</text></g>
    <g id="js"><rect x="-12" y="-12" width="24" height="24" fill="#F7DF1E" rx="3"/><text y="4" font-family="Arial" font-weight="bold" font-size="12" fill="#000" text-anchor="middle">JS</text></g>
    <g id="py"><rect x="-12" y="-12" width="24" height="24" fill="#3776AB" rx="4"/><text y="4" font-family="Arial" font-weight="bold" font-size="12" fill="#FFD43B" text-anchor="middle">Py</text></g>
    <g id="react"><g fill="none" stroke="#61DAFB" stroke-width="2"><ellipse rx="12" ry="4" transform="rotate(30)"/><ellipse rx="12" ry="4" transform="rotate(90)"/><ellipse rx="12" ry="4" transform="rotate(150)"/></g><circle r="2.5" fill="#61DAFB"/></g>
    <g id="node"><polygon points="0,-12 10,-6 10,6 0,12 -10,6 -10,-6" fill="#339933"/><text y="3" font-family="Arial" font-weight="bold" font-size="8" fill="#fff" text-anchor="middle">N</text></g>
    <g id="mongo"><path d="M0 -14 C-8 0 -8 8 0 14 C8 8 8 0 0 -14" fill="#47A248"/><path d="M0 -14 C8 0 8 8 0 14" fill="#3E863D"/></g>
    <g id="tail"><path d="M-8 0 C-4 -8 0 -8 4 0 C8 8 12 8 8 0 C4 -8 0 -8 -4 0" fill="none" stroke="#06B6D4" stroke-width="4" stroke-linecap="round"/></g>
    <g id="boot"><rect x="-12" y="-12" width="24" height="24" fill="#7952B3" rx="4"/><text y="5" font-family="Arial" font-weight="bold" font-size="14" fill="#fff" text-anchor="middle">B</text></g>
    <g id="dj"><rect x="-14" y="-12" width="28" height="24" fill="#092E20" rx="3"/><text y="4" font-family="Arial" font-weight="bold" font-size="11" fill="#fff" text-anchor="middle">dj</text></g>
  </defs>

  <rect width="100%" height="100%" fill="url(#dark-bg)" rx="15" />

  <g opacity="0.15">
    <g><animateTransform attributeName="transform" type="translate" values="15,-50; 15,350" dur="24s" begin="-10s" repeatCount="indefinite"/><use href="#html" transform="scale(0.5)"/></g>
    <g><animateTransform attributeName="transform" type="translate" values="130,-50; 130,350" dur="27s" begin="-15s" repeatCount="indefinite"/><use href="#tail" transform="scale(0.5)"/></g>
    <g><animateTransform attributeName="transform" type="translate" values="320,-50; 320,350" dur="22s" begin="-7s" repeatCount="indefinite"/><use href="#node" transform="scale(0.5)"/></g>
    <g><animateTransform attributeName="transform" type="translate" values="510,-50; 510,350" dur="26s" begin="-20s" repeatCount="indefinite"/><use href="#boot" transform="scale(0.5)"/></g>
    <g><animateTransform attributeName="transform" type="translate" values="760,-50; 760,350" dur="23s" begin="-6s" repeatCount="indefinite"/><use href="#tail" transform="scale(0.5)"/></g>
  </g>
  <g opacity="0.25">
    <g><animateTransform attributeName="transform" type="translate" values="100,-50; 100,350" dur="14s" begin="-1s" repeatCount="indefinite"/><use href="#node" transform="scale(0.8)"/></g>
    <g><animateTransform attributeName="transform" type="translate" values="300,-50; 300,350" dur="17s" begin="-12s" repeatCount="indefinite"/><use href="#tail" transform="scale(0.8)"/></g>
    <g><animateTransform attributeName="transform" type="translate" values="520,-50; 520,350" dur="14s" begin="-10s" repeatCount="indefinite"/><use href="#boot" transform="scale(0.8)"/></g>
    <g><animateTransform attributeName="transform" type="translate" values="785,-50; 785,350" dur="17s" begin="-12s" repeatCount="indefinite"/><use href="#react" transform="scale(0.8)"/></g>
  </g>
  <g opacity="0.45">
    <g><animateTransform attributeName="transform" type="translate" values="50,-50; 50,350" dur="10s" begin="-2s" repeatCount="indefinite"/><use href="#react" transform="scale(1.2)"/></g>
    <g><animateTransform attributeName="transform" type="translate" values="220,-50; 220,350" dur="11s" begin="-1s" repeatCount="indefinite"/><use href="#dj" transform="scale(1.2)"/></g>
    <g><animateTransform attributeName="transform" type="translate" values="410,-50; 410,350" dur="10s" begin="-4s" repeatCount="indefinite"/><use href="#tail" transform="scale(1.2)"/></g>
    <g><animateTransform attributeName="transform" type="translate" values="670,-50; 670,350" dur="11s" begin="-8s" repeatCount="indefinite"/><use href="#css" transform="scale(1.2)"/></g>
    <g><animateTransform attributeName="transform" type="translate" values="795,-50; 795,350" dur="10s" begin="-6s" repeatCount="indefinite"/><use href="#js" transform="scale(1.2)"/></g>
  </g>

  <line x1="400" y1="110" x2="400" y2="110" stroke="#00ffff" stroke-width="2" filter="url(#neon-glow)">
    <animate attributeName="x1" values="400; 150; 400" dur="4s" repeatCount="indefinite" />
    <animate attributeName="x2" values="400; 650; 400" dur="4s" repeatCount="indefinite" />
    <animate attributeName="opacity" values="0; 1; 0" dur="4s" repeatCount="indefinite" />
  </line>

  <text x="50%" y="45%" font-family="Arial, sans-serif" font-weight="bold" font-size="28" fill="#ffffff" filter="url(#light-shadow)" text-anchor="middle" dominant-baseline="middle">
    Thanks for dropping by! 🚀
  </text>
  
  <text x="50%" y="75%" font-family="'Courier New', monospace" font-weight="bold" font-size="16" fill="#00ffff" filter="url(#neon-glow)" text-anchor="middle" dominant-baseline="middle">
    &lt; Keep coding, keep building /&gt;
  </text>
</svg>
